<?xml version="1.0" encoding="utf-8"?>
<!-- Generator: Adobe Illustrator 25.1.0, SVG Export Plug-In . SVG Version: 6.00 Build 0)  -->
<svg version="1.1" id="Layer_1" xmlns:xodm="http://www.corel.com/coreldraw/odm/2003"
	 xmlns="http://www.w3.org/2000/svg" xmlns:xlink="http://www.w3.org/1999/xlink" x="0px" y="0px" viewBox="0 0 224.4 362.3"
	 style="enable-background:new 0 0 224.4 362.3;" xml:space="preserve">
<style type="text/css">
	.st0{fill:#E6E7E8;stroke:#373435;stroke-width:0.216;stroke-miterlimit:10;}
	.st1{fill-rule:evenodd;clip-rule:evenodd;fill:#91D8F7;stroke:#373435;stroke-width:0.216;stroke-miterlimit:10;}
	.st2{fill-rule:evenodd;clip-rule:evenodd;fill:#F48884;stroke:#373435;stroke-width:0.216;stroke-miterlimit:10;}
	.st3{fill-rule:evenodd;clip-rule:evenodd;fill:#E6E7E8;stroke:#373435;stroke-width:0.216;stroke-miterlimit:10;}
	.st4{fill-rule:evenodd;clip-rule:evenodd;fill:#B3B3B3;}
	.st5{fill:none;stroke:#000000;stroke-width:0.1831;stroke-linecap:round;stroke-linejoin:round;stroke-miterlimit:10;}
	.st6{fill-rule:evenodd;clip-rule:evenodd;fill:#9A9A9A;}
	.st7{fill-rule:evenodd;clip-rule:evenodd;fill:#FFFFFF;}
	.st8{fill:none;stroke:#373435;stroke-width:0.5669;stroke-miterlimit:10;}
	.st9{fill:none;stroke:#373435;stroke-width:0.216;stroke-miterlimit:10;}
	.st10{fill-rule:evenodd;clip-rule:evenodd;fill:#B3B3B3;stroke:#000000;stroke-width:0.216;stroke-miterlimit:10;}
	.st11{fill-rule:evenodd;clip-rule:evenodd;fill:#B3B3B3;stroke:#373435;stroke-width:0.216;stroke-miterlimit:10;}
	.st12{fill-rule:evenodd;clip-rule:evenodd;fill:#B3B3B3;stroke:#B3B3B3;stroke-width:0.216;stroke-miterlimit:10;}
	.st13{fill-rule:evenodd;clip-rule:evenodd;fill:#96989A;stroke:#373435;stroke-width:0.216;stroke-miterlimit:10;}
	.st14{fill-rule:evenodd;clip-rule:evenodd;fill:#B3B3B3;stroke:#B3B3B3;stroke-width:0.2835;stroke-miterlimit:10;}
	.st15{fill-rule:evenodd;clip-rule:evenodd;fill:#91D8F7;stroke:#373435;stroke-width:0.216;stroke-miterlimit:9.9997;}
	.st16{fill-rule:evenodd;clip-rule:evenodd;fill:#FFFFFF;stroke:#FFFFFF;stroke-width:0.216;stroke-miterlimit:10;}
</style>
<polygon class="st0" points="141,280.1 141,297 123.2,296.8 123.2,280.1 "/>
<polygon class="st0" points="131.5,87.4 131.5,113.7 112.8,113.9 112.8,279.4 94.6,297.3 94.6,322.1 56.4,322.1 56.4,271.9 
	95.9,271.9 95.9,87.4 "/>
<polygon class="st1" points="95.9,271.9 95.9,219.3 56.4,219.2 56.4,271.2 "/>
<polygon class="st1" points="95.9,219.3 95.9,165.4 55.8,165.4 55.8,219.2 "/>
<polygon class="st1" points="95.9,165.4 95.9,112.3 55.8,112.4 55.8,166.1 "/>
<polygon class="st1" points="112.8,87.4 113.1,6.7 56.4,6.7 56.4,113.7 95.9,113 95.9,87.4 "/>
<polygon class="st1" points="171.1,244.5 170.5,218.6 112.8,218.6 112.8,244.5 "/>
<polygon class="st1" points="171,218.6 171,165.8 112.8,165.4 112.8,218.6 "/>
<polygon class="st1" points="171.1,113.9 170.1,165.8 113.3,166 112.8,113.9 "/>
<polygon class="st1" points="171.1,114.5 171.1,88.1 131.5,88.1 131.5,114.5 "/>
<polygon class="st1" points="171.1,86.8 170.8,33 112.8,33.2 112.6,86.8 "/>
<polygon class="st2" points="170.8,33 170.5,6.7 113.1,6.7 113,33 "/>
<polygon class="st2" points="170,297 129.9,297.7 129.9,297.3 123.2,297.3 123.2,296.8 123.2,280.7 112.2,280.8 95.2,297.5 
	95.2,321.6 129.9,321.6 129.9,322.8 170.5,322.8 "/>
<polygon class="st3" points="131.4,279.4 131.7,244.5 112.8,244.5 112.8,280.1 "/>
<polygon class="st3" points="171.1,270.1 170,297 141,296.4 141,280.1 131.4,279.4 131.4,262.3 142.3,262.2 142.3,270.1 "/>
<polygon class="st3" points="131.4,262.3 131.7,244.5 170.5,244.5 169.9,269.5 143,269.5 142.3,262.2 "/>
<g>
	<rect x="122.4" y="296.5" class="st4" width="1.6" height="1.2"/>
	<polygon class="st4" points="171.1,6 171.1,322.9 169.9,321.5 169.9,7.4 	"/>
	<polygon points="171.1,6 171.2,6 171.2,322.9 171.1,322.9 	"/>
	<polygon points="169.9,7.4 170,7.4 170,321.5 169.9,321.5 	"/>
	<polygon class="st4" points="171.1,322.9 55.8,322.9 57.1,321.5 169.9,321.5 	"/>
	<polygon points="171.1,322.8 171.1,322.9 55.8,322.9 55.8,322.8 	"/>
	<polygon points="169.9,321.5 169.9,321.6 57.1,321.6 57.1,321.5 	"/>
	<polygon class="st4" points="55.8,322.9 55.8,6 57.1,7.4 57.1,321.5 	"/>
	<polygon points="55.8,322.9 55.7,322.9 55.7,6 55.8,6 	"/>
	<polygon points="57.1,321.5 57,321.5 57,7.4 57.1,7.4 	"/>
	<polygon class="st4" points="55.8,6 171.1,6 169.9,7.4 57.1,7.4 	"/>
	<polygon points="55.8,6.1 55.8,6 171.1,6 171.1,6.1 	"/>
	<polygon points="57.1,7.4 57.1,7.3 169.9,7.3 169.9,7.4 	"/>
	<polygon class="st4" points="113.4,33.9 113.4,86.8 112.2,88.1 112.2,33.9 	"/>
	<polygon points="112.8,33.9 112.8,33.8 113.4,33.8 113.5,33.8 113.5,33.9 113.5,86.8 113.4,86.8 113.4,33.9 113.4,33.9 113.4,33.9 
			"/>
	<polygon points="112.8,33.8 112.8,33.9 112.2,33.9 112.2,33.9 112.2,33.9 112.2,88.1 112.1,88.1 112.1,33.9 112.1,33.8 112.2,33.8 
			"/>
	<polygon class="st4" points="113.4,86.8 169.9,86.8 169.9,88.1 112.1,88.1 	"/>
	<polygon points="113.4,86.8 113.4,86.7 169.9,86.7 170,86.7 170,86.8 170,87.4 169.9,87.4 169.9,86.8 169.9,86.8 169.9,86.8 	"/>
	<polygon points="112.2,88.2 112.2,88 169.9,88 169.9,88.1 169.9,88.1 169.9,87.4 170,87.4 170,88.1 170,88.2 169.9,88.2 	"/>
	<polygon class="st4" points="113.4,114.6 113.4,166.7 112.2,166.7 112.2,113.2 	"/>
	<polygon points="113.4,114.5 113.5,114.5 113.5,166.6 113.4,166.6 	"/>
	<polygon points="112.1,113.2 112.2,113.2 112.2,166.6 112.1,166.6 	"/>
	<polygon class="st4" points="113.4,218.6 113.4,243.8 112.2,245.2 112.2,218.6 	"/>
	<polygon points="113.4,218.7 113.5,218.7 113.5,243.9 113.4,243.9 	"/>
	<polygon points="112.1,218.7 112.2,218.7 112.2,245.2 112.1,245.2 	"/>
	<polygon class="st4" points="169.9,297.7 123.7,297.7 122.4,296.4 169.9,296.4 	"/>
	<polygon points="169.9,297 170,297 170,297.7 170,297.7 169.9,297.7 123.7,297.7 123.7,297.6 169.9,297.6 169.9,297.7 169.9,297.7 
			"/>
	<polygon points="170,297 169.9,297 169.9,296.4 169.9,296.4 169.9,296.5 122.4,296.5 122.4,296.3 169.9,296.3 170,296.3 170,296.4 
			"/>
	<polygon class="st4" points="130.8,88.1 130.8,113.2 132.1,113.2 132.1,88.1 	"/>
	<polygon class="st4" points="130.8,87.9 130.8,88.1 132.1,88.1 132.1,87.9 	"/>
	<polygon class="st4" points="130.8,113.2 130.8,113.4 132.1,113.4 132.1,113.2 	"/>
	<polygon points="132.1,88.1 132.2,88.1 132.2,113.2 132.1,113.2 	"/>
	<polygon points="130.8,88.1 130.9,88.1 130.9,113.2 130.8,113.2 	"/>
	<polygon class="st4" points="95.3,86.8 112.2,86.8 112.2,88.1 96.6,88.1 	"/>
	<polygon points="95.3,86.8 95.3,86.7 112.2,86.7 112.2,86.7 112.2,86.8 112.2,87.4 112.1,87.4 112.1,86.8 112.2,86.8 112.2,86.8 	
		"/>
	<polygon points="96.5,88.2 96.5,88 112.2,88 112.2,88.1 112.1,88.1 112.1,87.4 112.2,87.4 112.2,88.1 112.2,88.2 112.2,88.2 	"/>
	<polygon class="st4" points="96.5,88.1 96.5,114.1 95.3,114.1 95.3,86.8 	"/>
	<polygon points="96.5,88.1 96.6,88.1 96.6,114.1 96.6,114.2 96.5,114.2 95.9,114.2 95.9,114.1 96.5,114.1 96.5,114.1 96.5,114.1 	
		"/>
	<polygon points="95.2,86.8 95.3,86.8 95.3,114.1 95.3,114.1 95.3,114.1 95.9,114.1 95.9,114.2 95.3,114.2 95.2,114.2 95.2,114.1 	
		"/>
	<polygon class="st4" points="96.5,112.4 96.5,165.2 95.3,165.2 95.3,113.7 	"/>
	<polygon points="96.5,112.4 96.6,112.4 96.6,165.2 96.6,165.2 96.5,165.2 95.9,165.2 95.9,165.1 96.5,165.1 96.5,165.2 96.5,165.2 
			"/>
	<polygon points="95.2,113.7 95.3,113.7 95.3,165.2 95.3,165.2 95.3,165.1 95.9,165.1 95.9,165.2 95.3,165.2 95.2,165.2 95.2,165.2 
			"/>
	<polygon class="st4" points="96.5,218.6 96.5,272.5 95.3,271.2 95.3,219.9 	"/>
	<polygon points="96.5,218.6 96.6,218.6 96.6,272.5 96.5,272.5 	"/>
	<polygon points="95.2,219.9 95.3,219.9 95.3,271.2 95.2,271.2 	"/>
	<polygon class="st4" points="113.4,243.4 113.4,279.4 112.2,280.8 112.2,243.4 	"/>
	<polygon points="112.8,243.5 112.8,243.4 113.4,243.4 113.5,243.4 113.5,243.4 113.5,279.4 113.4,279.4 113.4,243.4 113.4,243.4 
		113.4,243.5 	"/>
	<polygon points="112.8,243.4 112.8,243.5 112.2,243.5 112.2,243.4 112.2,243.4 112.2,280.8 112.1,280.8 112.1,243.4 112.1,243.4 
		112.2,243.4 	"/>
	<polygon class="st4" points="113.4,279.4 141.7,279.4 140.4,280.8 112.2,280.8 	"/>
	<polygon points="113.4,279.5 113.4,279.4 141.7,279.4 141.7,279.5 	"/>
	<polygon points="112.2,280.8 112.2,280.7 140.4,280.7 140.4,280.8 	"/>
	<polygon class="st4" points="122.4,280.8 122.4,296.4 123.7,296.4 123.7,280.8 	"/>
	<polygon points="123.7,280.8 123.8,280.8 123.8,296.4 123.8,296.5 123.7,296.5 123.1,296.5 123.1,296.3 123.7,296.3 123.7,296.4 
		123.7,296.4 	"/>
	<polygon points="122.4,280.8 122.5,280.8 122.5,296.4 122.4,296.4 122.4,296.3 123.1,296.3 123.1,296.5 122.4,296.5 122.4,296.5 
		122.4,296.4 	"/>
	<polygon class="st4" points="141.7,279.4 141.7,296.4 140.4,296.4 140.4,280.8 	"/>
	<polygon points="141.6,279.4 141.7,279.4 141.7,296.4 141.6,296.4 	"/>
	<polygon points="140.3,280.8 140.4,280.8 140.4,296.4 140.3,296.4 	"/>
	<polygon points="142.5,33.4 142.5,33.5 114.3,33.5 114.3,33.4 	"/>
	<polygon class="st5" points="120,217.8 120,218 120.8,218 120.8,217.8 	"/>
	<polygon class="st4" points="57.1,60.3 57.1,61.6 78.7,61.6 78.7,60.3 	"/>
	<polygon points="78.7,60.9 78.8,60.9 78.8,61.6 78.8,61.7 78.7,61.7 57.1,61.7 57,61.7 57,61.6 57,60.9 57.1,60.9 57.1,61.6 
		57.1,61.6 57.1,61.6 78.7,61.6 78.7,61.6 78.7,61.6 	"/>
	<polygon points="78.8,60.9 78.7,60.9 78.7,60.3 78.7,60.3 78.7,60.3 57.1,60.3 57.1,60.3 57.1,60.3 57.1,60.9 57,60.9 57,60.3 
		57,60.2 57.1,60.2 78.7,60.2 78.8,60.2 78.8,60.3 	"/>
	<polygon class="st4" points="95.3,113.7 57.1,113.7 57.1,112.4 96.5,112.4 	"/>
	<polygon points="95.3,113.6 95.3,113.7 57.1,113.7 57,113.7 57,113.7 57,113 57.1,113 57.1,113.7 57.1,113.7 57.1,113.6 	"/>
	<polygon points="96.5,112.3 96.5,112.4 57.1,112.4 57.1,112.4 57.1,112.4 57.1,113 57,113 57,112.4 57,112.3 57.1,112.3 	"/>
	<polygon class="st4" points="113.4,32.6 169.9,32.6 169.9,33.9 112.2,33.9 	"/>
	<polygon points="113.4,32.6 113.4,32.5 169.9,32.5 170,32.5 170,32.6 170,33.2 169.9,33.2 169.9,32.6 169.9,32.6 169.9,32.6 	"/>
	<polygon points="112.2,33.9 112.2,33.8 169.9,33.8 169.9,33.9 169.9,33.9 169.9,33.2 170,33.2 170,33.9 170,33.9 169.9,33.9 	"/>
	<path class="st6" d="M112.2,141.4l-0.1-5.5L112.2,141.4z M96.6,141.5l-0.1-5.5L96.6,141.5z"/>
	<polygon points="112.3,141.4 112.2,141.4 112.1,136 112.2,136 112.3,141.4 112.2,141.4 112.3,141.4 112.2,141.4 112.1,136 
		112.2,136 	"/>
	<polygon points="96.6,141.5 96.5,141.5 96.5,136.1 96.6,136.1 96.6,141.5 96.5,141.5 96.6,141.5 96.5,141.5 96.5,136.1 96.6,136.1 
			"/>
	<polygon class="st4" points="112.2,166.6 112.2,218.7 113.4,218.7 113.4,166.6 	"/>
	<polygon points="113.4,166.6 113.5,166.6 113.5,218.7 113.4,218.7 	"/>
	<polygon points="112.1,166.6 112.2,166.6 112.2,218.7 112.1,218.7 	"/>
	<polygon class="st4" points="112.2,113.2 169.9,113.2 169.9,114.5 113.4,114.5 	"/>
	<polygon points="112.2,113.3 112.2,113.2 169.9,113.2 170,113.2 170,113.2 170,113.9 169.9,113.9 169.9,113.2 169.9,113.2 
		169.9,113.3 	"/>
	<polygon points="113.4,114.6 113.4,114.5 169.9,114.5 169.9,114.5 169.9,114.5 169.9,113.9 170,113.9 170,114.5 170,114.6 
		169.9,114.6 	"/>
	<polygon class="st4" points="113.4,243.9 169.9,243.9 169.9,245.2 112.2,245.2 	"/>
	<polygon points="113.4,243.9 113.4,243.8 169.9,243.8 170,243.8 170,243.9 170,244.5 169.9,244.5 169.9,243.9 169.9,243.9 
		169.9,243.9 	"/>
	<path class="st6" d="M169.9,126.6v6.8V126.6z M113.4,126.6v6.8V126.6z"/>
	<polygon points="169.9,126.6 170,126.6 170,133.4 169.9,133.4 169.9,126.6 170,126.6 169.9,126.6 170,126.6 170,133.4 169.9,133.4 
			"/>
	<path class="st6" d="M57.1,123.5v5.5V123.5z M95.1,123.6v5.5V123.6z"/>
	<polygon class="st4" points="113.4,165.3 113.4,166.6 169.9,166.6 169.9,165.3 	"/>
	<polygon class="st4" points="113.3,165.4 113.3,166.5 113.5,166.5 113.5,165.4 	"/>
	<polygon class="st4" points="113.4,217.8 113.4,219.1 169.9,219.1 169.9,217.8 	"/>
	<polygon class="st4" points="113.3,217.8 113.3,219.1 113.4,219.1 113.4,217.8 	"/>
	<polygon points="169.9,218.5 170,218.5 170,219.1 170,219.2 169.9,219.2 113.4,219.2 113.4,219.1 169.9,219.1 169.9,219.1 
		169.9,219.1 	"/>
	<polygon points="170,218.5 169.9,218.5 169.9,217.8 169.9,217.8 169.9,217.8 113.4,217.8 113.4,217.8 169.9,217.8 170,217.8 
		170,217.8 	"/>
	<polygon class="st4" points="113.4,7.4 113.4,32.6 112.2,33.9 112.2,7.4 	"/>
	<polygon points="112.8,7.4 112.8,7.3 113.4,7.3 113.5,7.3 113.5,7.4 113.5,32.6 113.4,32.6 113.4,7.4 113.4,7.4 113.4,7.4 	"/>
	<polygon points="112.8,7.3 112.8,7.4 112.2,7.4 112.2,7.4 112.2,7.4 112.2,33.9 112.1,33.9 112.1,7.4 112.1,7.3 112.2,7.3 	"/>
	<polygon class="st4" points="95.3,166.1 57.1,166.1 57.1,164.8 96.5,164.8 	"/>
	<polygon points="95.3,166 95.3,166.2 57.1,166.2 57,166.2 57,166.1 57,165.4 57.1,165.4 57.1,166.1 57.1,166.1 57.1,166 	"/>
	<polygon points="96.5,164.7 96.5,164.8 57.1,164.8 57.1,164.8 57.1,164.8 57.1,165.4 57,165.4 57,164.8 57,164.7 57.1,164.7 	"/>
	<polygon class="st4" points="96.5,164.8 96.5,218.6 95.3,218.6 95.3,166.1 	"/>
	<polygon points="96.5,164.8 96.6,164.8 96.6,218.6 96.6,218.7 96.5,218.7 95.9,218.7 95.9,218.6 96.5,218.6 96.5,218.6 96.5,218.6 
			"/>
	<polygon points="95.2,166.1 95.3,166.1 95.3,218.6 95.3,218.6 95.3,218.6 95.9,218.6 95.9,218.7 95.3,218.7 95.2,218.7 95.2,218.6 
			"/>
	<polygon class="st4" points="95.3,219.9 57.1,219.9 57.1,218.6 96.5,218.6 	"/>
	<polygon points="95.3,219.8 95.3,220 57.1,220 57,220 57,219.9 57,219.2 57.1,219.2 57.1,219.9 57.1,219.9 57.1,219.8 	"/>
	<polygon points="96.5,218.6 96.5,218.7 57.1,218.7 57.1,218.6 57.1,218.6 57.1,219.2 57,219.2 57,218.6 57,218.6 57.1,218.6 	"/>
	<polygon class="st4" points="96.5,272.5 57.1,272.5 57.1,271.2 95.3,271.2 	"/>
	<polygon points="96.5,272.5 96.5,272.6 57.1,272.6 57,272.6 57,272.5 57,271.9 57.1,271.9 57.1,272.5 57.1,272.5 57.1,272.5 	"/>
	<polygon points="95.3,271.1 95.3,271.2 57.1,271.2 57.1,271.2 57.1,271.2 57.1,271.9 57,271.9 57,271.2 57,271.1 57.1,271.1 	"/>
	<polygon class="st7" points="95.2,116.6 95.2,125.3 96.6,125.3 96.6,116.6 	"/>
	<line class="st5" x1="95.3" y1="125.3" x2="96.5" y2="125.3"/>
	<line class="st5" x1="95.3" y1="116.6" x2="96.5" y2="116.6"/>
	<polygon class="st7" points="95.2,225.2 95.2,233.9 96.6,233.9 96.6,225.2 	"/>
	<line class="st5" x1="95.3" y1="233.9" x2="96.5" y2="233.9"/>
	<line class="st5" x1="95.3" y1="225.2" x2="96.5" y2="225.2"/>
	<polygon class="st7" points="97.6,86.7 97.6,88.2 112.1,88.2 112.1,86.7 	"/>
	<line class="st5" x1="112.2" y1="88" x2="112.2" y2="86.7"/>
	<line class="st5" x1="97.6" y1="88.1" x2="97.6" y2="86.8"/>
	<polygon class="st7" points="122.4,280.8 122.4,296.3 123.8,296.3 123.8,280.8 	"/>
	<line class="st5" x1="123.8" y1="280.8" x2="122.4" y2="280.8"/>
	<polygon class="st7" points="112.1,229 112.1,237.6 113.5,237.6 113.5,229 	"/>
	<line class="st5" x1="113.4" y1="237.6" x2="112.2" y2="237.6"/>
	<line class="st5" x1="113.4" y1="229" x2="112.2" y2="229"/>
	<polygon class="st7" points="112.1,203.3 112.1,212.2 113.5,212.2 113.5,203.3 	"/>
	<line class="st5" x1="113.4" y1="212.2" x2="112.2" y2="212.2"/>
	<line class="st5" x1="113.4" y1="203.2" x2="112.2" y2="203.2"/>
	<polygon class="st7" points="112.1,269.9 112.1,278.6 113.5,278.6 113.5,269.9 	"/>
	<line class="st5" x1="113.4" y1="269.9" x2="112.2" y2="269.9"/>
	<polygon class="st7" points="112.1,150.6 112.1,159.3 113.5,159.3 113.5,150.6 	"/>
	<line class="st5" x1="113.4" y1="159.3" x2="112.2" y2="159.3"/>
	<line class="st5" x1="113.4" y1="150.6" x2="112.2" y2="150.6"/>
	<polygon class="st7" points="130.8,97.6 130.8,106.2 132.2,106.2 132.2,97.6 	"/>
	<line class="st5" x1="132.1" y1="106.2" x2="130.8" y2="106.2"/>
	<line class="st5" x1="132.1" y1="97.5" x2="130.8" y2="97.5"/>
	<polygon class="st7" points="114,86.7 114,88.2 130.4,88.2 130.4,86.7 	"/>
	<line class="st5" x1="113.9" y1="86.8" x2="113.9" y2="88.1"/>
	<line class="st5" x1="130.4" y1="86.8" x2="130.4" y2="88.1"/>
	<polygon class="st7" points="95.2,168.4 95.2,177.1 96.6,177.1 96.6,168.4 	"/>
	<line class="st5" x1="95.3" y1="168.3" x2="96.5" y2="168.3"/>
	<line class="st5" x1="95.3" y1="177.1" x2="96.5" y2="177.1"/>
	<polygon class="st7" points="112.1,12.7 112.1,29.2 113.5,29.2 113.5,12.7 	"/>
	<line class="st5" x1="112.2" y1="29.2" x2="113.4" y2="29.2"/>
	<line class="st5" x1="112.2" y1="12.7" x2="113.4" y2="12.7"/>
	<polyline class="st8" points="97,321.5 97,319.8 93.4,319.8 93.4,321.5 	"/>
	<rect x="113.4" y="166.5" class="st9" width="3.9" height="1.7"/>
	<rect x="167.3" y="216.1" class="st10" width="3.8" height="1.7"/>
	<polygon class="st11" points="112.2,203.2 113.4,203.2 113.4,168.3 117.3,168.3 117.3,166.6 167.3,166.7 167.3,168.4 169.9,168.4 
		169.9,166.7 169.9,165.3 113.3,165.4 112.2,165.4 	"/>
	<rect x="170" y="164.8" class="st12" width="1" height="4.5"/>
	<rect x="169.1" y="165.4" class="st4" width="1" height="2.9"/>
	<rect x="112.2" y="164.5" class="st4" width="1.2" height="1.8"/>
	<path class="st13" d="M123.7,281v7.3h-1.3V281L123.7,281L123.7,281z M123.7,288.8v7.3h-1.3v-7.3H123.7z"/>
	<rect x="122.4" y="288.4" class="st9" width="1.3" height="0.3"/>
	<rect x="170" y="215.3" class="st14" width="1" height="3.8"/>
	<rect x="167.5" y="216.2" class="st12" width="2.6" height="2.8"/>
	
		<rect x="94.4" y="295.3" transform="matrix(0.7142 -0.6999 0.6999 0.7142 -179.5179 151.9113)" class="st15" width="3.8" height="0.9"/>
	<polygon class="st1" points="95.2,297.5 94.6,296.8 94.6,319.7 95.2,319.7 	"/>
	<polygon class="st1" points="109.6,283.4 109,282.7 112.1,279.6 112.2,280.8 	"/>
	<polygon class="st11" points="97,319.8 93.4,319.8 93.4,321.5 97,321.5 	"/>
	<rect x="93.6" y="320.9" class="st14" width="3.3" height="1.2"/>
	<rect x="130.8" y="245.3" class="st11" width="1.3" height="34.2"/>
	<rect x="157.5" y="245.3" class="st11" width="1.3" height="51.1"/>
	<rect x="141.7" y="254.3" class="st11" width="1.3" height="15.7"/>
	<rect x="130.8" y="245.9" class="st16" width="1.3" height="7.2"/>
	<rect x="157.5" y="246.3" class="st16" width="1.3" height="7.2"/>
	<rect x="157.5" y="271.4" class="st16" width="1.3" height="7.2"/>
	<rect x="130.8" y="271.4" class="st16" width="1.3" height="7.2"/>
	<line class="st5" x1="113.4" y1="203.2" x2="112.2" y2="203.2"/>
	<polygon points="112.2,245.3 112.2,245.2 169.9,245.2 169.9,245.2 169.9,245.2 169.9,244.5 170,244.5 170,245.2 170,245.3 
		169.9,245.3 	"/>
	<line class="st5" x1="158.7" y1="246.3" x2="157.5" y2="246.3"/>
	<line class="st5" x1="158.7" y1="253.6" x2="157.5" y2="253.6"/>
	<line class="st5" x1="132.1" y1="245.9" x2="130.8" y2="245.9"/>
	<line class="st5" x1="132" y1="253.2" x2="130.8" y2="253.2"/>
	<line class="st5" x1="158.7" y1="271.3" x2="157.5" y2="271.3"/>
	<line class="st5" x1="158.7" y1="278.6" x2="157.5" y2="278.6"/>
	<line class="st5" x1="132" y1="271.3" x2="130.8" y2="271.3"/>
	<line class="st5" x1="132.1" y1="278.6" x2="130.8" y2="278.6"/>
	<line class="st5" x1="113.4" y1="278.6" x2="112.2" y2="278.6"/>
	<line class="st5" x1="123.7" y1="297.7" x2="122.4" y2="297.7"/>
	<line class="st5" x1="122.4" y1="296.4" x2="122.4" y2="297.7"/>
	<polygon class="st7" points="108.9,282.7 97.3,294.1 98,294.8 109.6,283.4 	"/>
</g>
</svg>
